<svg xmlns="http://www.w3.org/2000/svg" viewBox="0 0 780 231"><path d="M592 113.5V227l18.8-.2 18.7-.3.3-113.3L630 0h-38v113.5zM147.5 88c-29.6 4.7-47.7 21.8-53.7 50.7-2.7 13-2.1 34.8 1.2 46.3 6.7 23.4 21.6 37.9 44.5 43.7 10 2.4 34.2 2.5 44.8 0 23.1-5.4 39.3-21.3 45.2-44.2 3.7-14.2 3.7-36.2 0-50.8-5.8-22.4-21.3-37.9-44.2-43.8-9-2.3-28.6-3.3-37.8-1.9zm27.5 28.4c5.4 2.6 10.2 9.3 12.8 17.5 2.5 8.1 2.5 44 0 52.2-3.9 12.6-11.5 18.2-24.7 18.3-4.2 0-9.3-.5-11.5-1.3-5.4-1.9-11-7.2-13.4-12.9-5.3-12.3-5.6-44.2-.6-59.3 1.7-5.3 7.3-12.3 11.6-14.5 7.3-3.8 18.2-3.8 25.8 0zM298.3 88.1c-21.8 3.4-38.1 14.6-46.9 32.4-6.2 12.6-7.8 20.6-7.7 39.5 0 12.7.4 17 2.2 23.5 4.4 16.3 11.3 27 22.5 35 23.5 16.7 66.7 16.7 90.2 0 11.1-7.9 18.3-19.1 22.5-35 3.2-11.8 3.2-35.4.1-47.9-6-24.1-21.7-40.1-45.2-46-7.8-2-29.1-2.9-37.7-1.5zm25.5 27.1c4.4 1.3 9.8 6.2 12.3 10.9 6.2 12.3 7.5 45.6 2.3 61.6-3.6 11.3-11.9 16.8-24.9 16.8-13 0-21.3-5.5-24.9-16.8-5-15.5-3.9-49.2 2-61 2.1-4.2 6.2-8.5 9.8-10.4 5.9-3.1 15.5-3.5 23.4-1.1zM696.5 88c-27.1 4.3-44.4 19.3-50 43.5-4 17.2-3.8 41.9.6 57.5 5.8 21.1 19.5 34.2 41.4 39.7 10.7 2.6 39.2 2.4 49.6-.5 21.7-5.9 36.9-20.7 38.6-37.8l.6-5.4h-40l-.7 3.8c-.9 5.7-4.5 10.4-10 13.1-4.1 2.1-6.4 2.5-14 2.5-19-.1-25.8-7.5-27.3-30.2l-.6-9.2h95.6l-.6-12.3c-1.1-22.6-6.4-36.6-18.1-48.2-7.9-7.9-14.5-11.5-26.4-14.6-8.9-2.3-29.4-3.3-38.7-1.9zm28.1 28.4c7.7 3.6 12.1 10.8 13.3 21.7l.7 6.9H686v-4.3c0-5.7 2.2-12.9 5.5-17.9 5.7-8.5 21.8-11.7 33.1-6.4zM73.5 88.5c-.5.2-3.5 1.1-6.5 2-7.8 2.4-15.5 7.4-22.7 14.6l-6.3 6.3V92H0v134h37.9l.3-41.3.3-41.2L41 139c5-8.9 11.9-11.5 30.8-11.5H85V88l-5.2.1c-2.9 0-5.7.2-6.3.4zM410 92.3c0 .1-4.3 29.8-9.5 66s-9.5 66.5-9.5 67.3c0 1.2 2.7 1.4 18.8 1.2l18.7-.3 4.6-41.5c2.5-22.8 4.8-42.3 5-43.3.2-1 6.3 17.7 13.5 41.5l13 43.3 19.7.3c17.9.2 19.7.1 20.5-1.5.5-1 6.4-20 13.1-42.3 13.8-45.7 13.3-44.1 13.7-42 .2.8 2.2 19 4.4 40.5 2.2 21.4 4.3 40.5 4.6 42.2l.5 3.3h18.3c10 0 18.5-.2 18.7-.5.3-.3-18.1-129.8-19-134.3-.1-.1-10.5-.1-23.3 0l-23.2.3L499 139c-7.4 25.6-13.8 47.1-14 47.7-.3.7-6.8-20.3-14.4-46.7l-13.9-48h-23.4c-12.8 0-23.3.1-23.3.3z"/></svg>
